<mxfile host="app.diagrams.net" agent="Mozilla/5.0 (Windows NT 10.0; Win64; x64) AppleWebKit/537.36 (KHTML, like Gecko) Chrome/132.0.0.0 Safari/537.36 OPR/117.0.0.0" version="26.2.14">
  <diagram id="C5RBs43oDa-KdzZeNtuy" name="Page-1">
    <mxGraphModel dx="988" dy="571" grid="1" gridSize="10" guides="1" tooltips="1" connect="1" arrows="1" fold="1" page="1" pageScale="1" pageWidth="827" pageHeight="1169" math="0" shadow="0">
      <root>
        <mxCell id="WIyWlLk6GJQsqaUBKTNV-0" />
        <mxCell id="WIyWlLk6GJQsqaUBKTNV-1" parent="WIyWlLk6GJQsqaUBKTNV-0" />
        <mxCell id="y9ue2mDPaF8vCii8hGkq-9" value="Repository" style="swimlane;align=center;verticalAlign=top;childLayout=stackLayout;horizontal=1;startSize=26;horizontalStack=0;resizeParent=1;resizeParentMax=0;resizeLast=0;collapsible=1;marginBottom=0;whiteSpace=wrap;html=1;" vertex="1" parent="WIyWlLk6GJQsqaUBKTNV-1">
          <mxGeometry x="310" y="228" width="360" height="500" as="geometry">
            <mxRectangle x="310" y="230" width="100" height="30" as="alternateBounds" />
          </mxGeometry>
        </mxCell>
        <mxCell id="y9ue2mDPaF8vCii8hGkq-10" value="- list_of_tutorials: vector&amp;lt;Tutorial&amp;gt;" style="text;strokeColor=none;fillColor=none;align=left;verticalAlign=top;spacingLeft=4;spacingRight=4;overflow=hidden;rotatable=0;points=[[0,0.5],[1,0.5]];portConstraint=eastwest;whiteSpace=wrap;html=1;" vertex="1" parent="y9ue2mDPaF8vCii8hGkq-9">
          <mxGeometry y="26" width="360" height="26" as="geometry" />
        </mxCell>
        <mxCell id="y9ue2mDPaF8vCii8hGkq-11" value="" style="line;strokeWidth=1;fillColor=none;align=left;verticalAlign=middle;spacingTop=-1;spacingLeft=3;spacingRight=3;rotatable=0;labelPosition=right;points=[];portConstraint=eastwest;strokeColor=inherit;" vertex="1" parent="y9ue2mDPaF8vCii8hGkq-9">
          <mxGeometry y="52" width="360" height="8" as="geometry" />
        </mxCell>
        <mxCell id="y9ue2mDPaF8vCii8hGkq-12" value="&lt;div&gt;&lt;pre style=&quot;font-size: 9.8pt;&quot;&gt;&lt;font style=&quot;color: rgb(0, 0, 0);&quot; face=&quot;Times New Roman&quot;&gt;+ Repository();&lt;br&gt;&lt;br&gt;+ get_position_in_the_list_of(const std::string&amp;amp; link): int&lt;br&gt;&lt;br&gt;+ get_size(): int&lt;br&gt;&lt;br&gt;+ add_tutorial(Tutorial Tu): void&lt;br&gt;&lt;br&gt;+ remove_tutorial_with(const std::string&amp;amp; link): void&lt;br&gt;&lt;br&gt;+ update_tutorial_with(const std::string&amp;amp; link, Tutorial Tu): void&lt;br&gt;&lt;br&gt;+ load_from_file(const std::string&amp;amp; file_name): void&lt;br&gt;&lt;br&gt;+ save_in_file(const std::string&amp;amp; fine_name): virtual void&lt;br&gt;&lt;br&gt;+ like_tutorial(const std::string&amp;amp; link): void&lt;br&gt;&lt;br&gt;+ check_if_element_exists(const std::string&amp;amp; link): bool&lt;br&gt;&lt;br&gt;+ get_list(): vector&amp;lt;Tutorial&amp;gt;&lt;br&gt;&lt;br&gt;+ get_all_elemets(): Repository&lt;br&gt;&lt;br&gt;+ get_element_at_index(int index): Tutorial&lt;br&gt;&lt;br&gt;+ destroy_repo(): void&lt;/font&gt;&lt;/pre&gt;&lt;/div&gt;" style="text;strokeColor=none;fillColor=none;align=left;verticalAlign=top;spacingLeft=4;spacingRight=4;overflow=hidden;rotatable=0;points=[[0,0.5],[1,0.5]];portConstraint=eastwest;whiteSpace=wrap;html=1;" vertex="1" parent="y9ue2mDPaF8vCii8hGkq-9">
          <mxGeometry y="60" width="360" height="440" as="geometry" />
        </mxCell>
      </root>
    </mxGraphModel>
  </diagram>
</mxfile>
